<svg t="1650095395057" class="icon" viewBox="0 0 1024 1024" version="1.1" xmlns="http://www.w3.org/2000/svg" p-id="2144" width="128" height="128"><path d="M256 832c0 52.992 42.976 96 96 96l320 0c52.992 0 96-43.008 96-96l64-512-640 0 64 512zM608 416l64 0 0 416-64 0 0-416zM480 416l64 0 0 416-64 0 0-416zM352 416l64 0 0 416-64 0 0-416zM816 192l-208 0c0 0-14.336-64-32-64l-128 0c-17.696 0-32 64-32 64l-208 0c-26.528 0-48 21.472-48 48s0 48 0 48l704 0c0 0 0-21.472 0-48s-21.504-48-48-48z" p-id="2145"></path></svg>